Coordinates
version=1
nRows=17
nColumns=36
inDegrees=yes

Units are S.I. units (second, meters, Newtons, ...)
If the header above contains a line with 'inDegrees', this indicates whether rotational values are in degrees (yes) or radians (no).

endheader
time	pelvis_tilt	pelvis_list	pelvis_rotation	pelvis_tx	pelvis_ty	pelvis_tz	hip_flexion_r	hip_adduction_r	hip_rotation_r	knee_angle_r	knee_angle_r_beta	ankle_angle_r	subtalar_angle_r	mtp_angle_r	hip_flexion_l	hip_adduction_l	hip_rotation_l	knee_angle_l	knee_angle_l_beta	ankle_angle_l	subtalar_angle_l	mtp_angle_l	lumbar_extension	lumbar_bending	lumbar_rotation	arm_flex_r	arm_add_r	arm_rot_r	elbow_flex_r	pro_sup_r	arm_flex_l	arm_add_l	arm_rot_l	elbow_flex_l	pro_sup_l
      4.43000000	    -39.30398902	      1.76067363	      0.44121786	     -0.41551073	      0.66632009	     -0.60114865	    103.85611899	     -6.40441446	      2.37844497	     81.46157521	      1.42177270	     24.01161241	      2.80873504	     -7.49999987	    103.19246214	    -10.03506441	     -5.09796770	     80.13073561	      1.39854517	     22.40473459	      5.97429674	     -7.49999987	    -34.08431816	      1.26358590	     -2.28774035	      8.96042149	     -9.47496534	      1.62334324	    139.15822656	    110.31084004	      0.88760595	     -9.31943493	    -20.32041690	    140.49695413	    107.88149758
      4.44000000	    -39.71411648	      1.76011844	      0.43733123	     -0.41072842	      0.67292982	     -0.60111018	    103.02651138	     -6.23908995	      2.43583932	     80.32901281	      1.40200576	     23.98928138	      2.53499798	     -7.49999987	    102.40712876	     -9.74087673	     -5.00136118	     79.03814243	      1.37947582	     22.34485645	      5.68300967	     -7.49999987	    -33.22780375	      1.16069741	     -2.29167405	      8.23240902	     -8.99971603	      1.82301771	    138.55282505	    110.37861205	      0.79955878	     -8.73143353	    -19.85393514	    139.68753043	    107.97081860
      4.45000000	    -40.11675818	      1.84240863	      0.58932209	     -0.40609658	      0.67928401	     -0.60169159	    102.31035471	     -6.29441093	      2.58996717	     79.30500309	      1.38413342	     23.67236853	      1.99246901	     -7.49999987	    101.60442742	     -9.16885425	     -4.98895811	     77.87715434	      1.35921276	     21.84099102	      4.54848395	     -7.49999987	    -32.26229444	      1.03017649	     -1.77923101	      6.79105549	     -8.65011726	      1.08368076	    138.47670623	    110.94600192	      1.18458165	     -8.19667812	    -18.30338390	    138.43915146	    108.92777804
      4.46000000	    -40.41912691	      1.94377523	      0.70485939	     -0.40135904	      0.68581667	     -0.60210538	    101.47328648	     -6.33211136	      2.75097889	     78.25084049	      1.36573481	     23.65007855	      1.95564290	     -7.49999987	    100.67474847	     -8.65795045	     -4.92953205	     76.70364011	      1.33873107	     21.75135261	      4.13229544	     -7.49999987	    -31.33874643	      0.88163887	     -1.95544234	      6.00813837	     -8.17208926	      1.28324586	    137.91198812	    111.08536802	      0.96805359	     -7.73457183	    -17.66641607	    137.78558720	    109.21695395
      4.47000000	    -40.56664350	      1.87531228	      0.59232683	     -0.39638090	      0.69288102	     -0.60171669	    100.31422276	     -6.03002917	      2.75744269	     77.01357908	      1.34414052	     23.67036933	      1.88695430	     -7.49999987	     99.64041556	     -8.50165732	     -4.71699991	     75.57944142	      1.31911010	     21.72857583	      4.05830710	     -7.49999987	    -30.54971125	      0.83333258	     -2.00734197	      5.46976717	     -7.65875959	      1.63274516	    137.33111255	    111.09645999	      0.67115466	     -7.32256178	    -17.36310073	    137.27737327	    109.24203895
      4.48000000	    -40.62299244	      1.73767019	      0.39826362	     -0.39130556	      0.70005055	     -0.60110203	     99.02517643	     -5.58586989	      2.74262128	     75.73473021	      1.32182040	     23.64301934	      1.69675527	     -7.49999987	     98.54815089	     -8.47684045	     -4.49925772	     74.48644518	      1.30003372	     21.65980425	      3.88912657	     -7.49999987	    -29.71357633	      0.81473272	     -1.98302354	      4.95235955	     -7.22410865	      2.02861005	    136.58339306	    111.10053545	      0.37401965	     -6.96768191	    -17.01948488	    136.62169156	    109.24807854
      4.49000000	    -40.67664131	      1.61406443	      0.30679663	     -0.38635732	      0.70691183	     -0.60089417	     97.81084119	     -5.29211885	      2.74367247	     74.51907854	      1.30060328	     23.55869979	      1.44654693	     -7.49999987	     97.46591984	     -8.29214503	     -4.29132878	     73.37774931	      1.28068332	     21.57194497	      3.62985923	     -7.49999987	    -28.77254228	      0.82732886	     -1.97688978	      4.33589325	     -6.89289070	      2.38161935	    135.93513982	    111.10765597	      0.05110160	     -6.61866462	    -16.59838303	    136.05725624	    109.25910294
      4.50000000	    -40.72733222	      1.49840929	      0.28632035	     -0.38149600	      0.71366472	     -0.60088715	     96.64200985	     -5.06760367	      2.72772229	     73.32153189	      1.27970214	     22.86643148	      0.23612141	     -7.49999987	     96.41997128	     -7.94591354	     -3.99488871	     72.24552026	      1.26092220	     20.81414416	      2.30442625	     -7.49999987	    -27.69794783	      0.84262475	     -1.79070119	      3.48308589	     -6.68320508	      2.48976913	    135.34145986	    111.24247607	     -0.07393811	     -6.39279329	    -15.60652148	    135.12897064	    109.42529461
      4.51000000	    -40.70800435	      1.41885244	      0.26264142	     -0.37658455	      0.72065470	     -0.60093391	     95.36147326	     -4.86623589	      2.79267189	     72.06368141	      1.25774851	     22.81792498	      0.12359526	     -7.49999987	     95.25398647	     -7.61328801	     -3.65695851	     71.07438658	      1.24048206	     20.72945502	      2.17856512	     -7.49999987	    -26.72753953	      0.84926883	     -1.91130420	      2.91860604	     -6.43248743	      2.78925018	    134.82890167	    111.25754185	     -0.43729159	     -6.15384331	    -15.15869771	    134.72211846	    109.44386506
      4.52000000	    -40.59701590	      1.31349232	      0.24967739	     -0.37156004	      0.72792194	     -0.60109198	     93.95934559	     -4.69828267	      2.82303980	     70.74833866	      1.23479145	     22.71929574	     -0.03565317	     -7.49999987	     93.96775289	     -7.28231619	     -3.32306262	     69.85151712	      1.21913896	     20.59958196	      1.97867939	     -7.49999987	    -25.79948170	      0.92710553	     -2.04603659	      2.42396466	     -6.26159535	      3.08060329	    134.33554349	    111.27641522	     -0.72222554	     -5.93374146	    -14.70435805	    134.27778893	    109.45433202
      4.53000000	    -40.25342665	      1.14597810	      0.29633783	     -0.36624019	      0.73557633	     -0.60145263	     92.29080382	     -4.60917608	      2.73539843	     69.43475997	      1.21186518	     22.16452138	     -1.01319049	     -7.49999987	     92.46418407	     -6.87086863	     -2.97623504	     68.64160590	      1.19802203	     19.84316100	      0.71707669	     -7.49999987	    -25.04999098	      1.12061508	     -1.92106107	      1.84074626	     -6.26445624	      3.31217960	    133.83689155	    111.47526798	     -0.77067783	     -5.80371892	    -13.80798232	    133.45572317	    109.56022860
      4.54000000	    -39.92379497	      1.07067891	      0.35819145	     -0.36086645	      0.74327525	     -0.60181398	     90.62835520	     -4.56407053	      2.75372781	     68.07870007	      1.18819747	     22.08695158	     -1.07624928	     -7.49999987	     90.88207156	     -6.47550289	     -2.69500416	     67.33786809	      1.17526751	     19.76003629	      0.62402541	     -7.49999987	    -24.27085825	      1.22707740	     -2.08262199	      1.41487779	     -6.19667623	      3.60688119	    133.34262896	    111.50211030	     -0.99868225	     -5.66586968	    -13.32459743	    132.97903520	    109.57301236
      4.55000000	    -39.36341936	      0.95661492	      0.40160515	     -0.35516609	      0.75141752	     -0.60207248	     88.68934032	     -4.47415927	      2.73310532	     66.71392470	      1.16437764	     21.88311237	     -1.43963763	     -7.49999987	     89.06311296	     -6.13397806	     -2.38697023	     66.05460497	      1.15287034	     19.47854956	      0.23692938	     -7.49999987	    -23.67588287	      1.36650555	     -2.12082462	      1.01972646	     -6.24461925	      3.97327171	    132.67254781	    111.56557345	     -1.14199671	     -5.62651065	    -12.54448945	    132.22844829	    109.59928969
      4.56000000	    -38.92456489	      0.89398782	      0.43255831	     -0.34966980	      0.75939995	     -0.60220468	     86.87624495	     -4.33338295	      2.82117681	     65.25253212	      1.13887153	     21.66525108	     -1.72419560	     -7.49999987	     87.31289221	     -5.77987007	     -2.04999638	     64.64122869	      1.12820227	     19.22526947	     -0.00786017	     -7.49999987	    -22.89936605	      1.43035519	     -2.21564703	      0.62416156	     -6.28131785	      4.21391653	    132.07705561	    111.61200425	     -1.26277555	     -5.60356048	    -11.88975868	    131.61537474	    109.61378863
      4.57000000	    -38.33479897	      0.86359688	      0.49486866	     -0.34398767	      0.76741540	     -0.60232382	     84.93101260	     -4.23914487	      2.89054792	     63.84592358	      1.11432158	     21.17561562	     -2.51659334	     -7.49999987	     85.42264246	     -5.42350036	     -1.84639315	     63.25450707	      1.10399942	     18.66812708	     -0.83506354	     -7.49999987	    -22.21416650	      1.44474392	     -2.15417263	      0.02457037	     -6.35522304	      4.31643385	    131.49502542	    111.76623179	     -1.27011886	     -5.69419810	    -10.88676858	    130.85484269	    109.65274237
      4.58000000	    -37.89625391	      0.88304204	      0.55799579	     -0.33841475	      0.77513022	     -0.60254795	     83.15015898	     -4.24640042	      2.90877269	     62.38417573	      1.08880927	     21.02700271	     -2.60108677	     -7.49999987	     83.65008288	     -5.06193756	     -1.66727424	     61.79935835	      1.07860228	     18.52367125	     -1.00641177	     -7.49999987	    -21.30419105	      1.38164659	     -2.30591843	     -0.37420990	     -6.38759356	      4.45938748	    130.85371859	    111.77626905	     -1.45968631	     -5.70929010	    -10.34939648	    130.38237636	    109.64483143
      4.59000000	    -37.22975569	      0.91728163	      0.61159292	     -0.33253577	      0.78321916	     -0.60283016	     81.13620985	     -4.28945895	      2.89985155	     60.95950881	      1.06394414	     20.77128532	     -2.75523140	     -7.49999987	     81.62094313	     -4.73600133	     -1.57689558	     60.34683974	      1.05325105	     18.25564548	     -1.38983934	     -7.49999987	    -20.60610555	      1.35086657	     -2.42569248	     -0.68249247	     -6.41407233	      4.57214847	    129.99701234	    111.78106481	     -1.57138014	     -5.77421525	     -9.69717859	    129.70104569	    109.61950013
